<svg id="Layer_1" data-name="Layer 1" xmlns="http://www.w3.org/2000/svg" xmlns:xlink="http://www.w3.org/1999/xlink" viewBox="0 0 675.75 829.36"><defs><style>.cls-1{fill:url(#linear-gradient);}.cls-2{fill:url(#linear-gradient-2);}.cls-3{fill:url(#linear-gradient-3);}.cls-4{fill:url(#linear-gradient-4);}.cls-5{fill:url(#linear-gradient-5);}.cls-6{fill:url(#linear-gradient-6);}.cls-7{fill:url(#linear-gradient-7);}.cls-8{fill:url(#linear-gradient-8);}.cls-9{fill:url(#linear-gradient-9);}.cls-10{fill:url(#linear-gradient-10);}.cls-11{fill:url(#linear-gradient-11);}.cls-12{fill:url(#linear-gradient-12);}.cls-13{fill:url(#linear-gradient-13);}.cls-14{fill:url(#linear-gradient-14);}.cls-15{fill:url(#linear-gradient-15);}.cls-16{fill:url(#linear-gradient-16);}.cls-17{fill:none;clip-rule:evenodd;}.cls-18,.cls-43{fill:#241f21;}.cls-19{fill:#a1d8ff;}.cls-19,.cls-21,.cls-22,.cls-23,.cls-25,.cls-26,.cls-27,.cls-29,.cls-32,.cls-36,.cls-38,.cls-39,.cls-40,.cls-43,.cls-46,.cls-47,.cls-48,.cls-50,.cls-51,.cls-53,.cls-55,.cls-60,.cls-63{fill-rule:evenodd;}.cls-20{clip-path:url(#clip-path);}.cls-21{fill:#74c1f7;}.cls-22{fill:#569bcc;}.cls-23{fill:#ffcdb4;}.cls-24{clip-path:url(#clip-path-2);}.cls-25{fill:#eda494;}.cls-26,.cls-29{fill:#c4706c;}.cls-27{fill:#ffe4d7;}.cls-28{mask:url(#mask);}.cls-29{opacity:0.5;}.cls-30{mask:url(#mask-2);}.cls-31{mask:url(#mask-3);}.cls-32{fill:#523222;}.cls-33{mask:url(#mask-4);}.cls-34{mask:url(#mask-5);}.cls-35{mask:url(#mask-6);}.cls-36{fill:#e38986;}.cls-37{clip-path:url(#clip-path-3);}.cls-38{fill:#fca9a6;}.cls-39{fill:#bd6d6a;}.cls-40{fill:#a15855;}.cls-41{clip-path:url(#clip-path-4);}.cls-42{clip-path:url(#clip-path-5);}.cls-44{clip-path:url(#clip-path-6);}.cls-45{mask:url(#mask-7);}.cls-46{fill:#755338;}.cls-47{fill:#fff;}.cls-48{fill:#9c9c9c;}.cls-49{clip-path:url(#clip-path-7);}.cls-50{fill:#ccc;}.cls-51{fill:gray;}.cls-52{clip-path:url(#clip-path-8);}.cls-53{fill:#221d1f;}.cls-54{clip-path:url(#clip-path-9);}.cls-55{fill:#2f75a5;}.cls-56{mask:url(#mask-8);}.cls-57{mask:url(#mask-9);}.cls-58{mask:url(#mask-10);}.cls-59{mask:url(#mask-11);}.cls-60{fill:#574219;}.cls-61{mask:url(#mask-12);}.cls-62{clip-path:url(#clip-path-10);}.cls-63{fill:#7b694b;}.cls-64{mask:url(#mask-13);}.cls-65{clip-path:url(#clip-path-11);}.cls-66{clip-path:url(#clip-path-12);}.cls-67{mask:url(#mask-14);}.cls-68{mask:url(#mask-15);}.cls-69{mask:url(#mask-16);}</style><linearGradient id="linear-gradient" x1="156.12" y1="610.69" x2="166.32" y2="1093.76" gradientTransform="translate(280.38 -215.95)" gradientUnits="userSpaceOnUse"><stop offset="0" stop-color="#fff"/><stop offset="1"/></linearGradient><linearGradient id="linear-gradient-2" x1="37.89" y1="778.5" x2="-0.49" y2="870.54" gradientTransform="translate(334.84 -364.17)" xlink:href="#linear-gradient"/><linearGradient id="linear-gradient-3" x1="-8" y1="876.91" x2="177.07" y2="712.22" gradientTransform="translate(298.36 -503.47)" xlink:href="#linear-gradient"/><linearGradient id="linear-gradient-4" x1="142.49" y1="860.69" x2="-124.93" y2="740.31" gradientTransform="translate(468.47 -496.19)" xlink:href="#linear-gradient"/><linearGradient id="linear-gradient-5" x1="171.95" y1="743.03" x2="155.68" y2="861.84" gradientTransform="translate(276.04 -486.68)" xlink:href="#linear-gradient"/><linearGradient id="linear-gradient-6" x1="11.83" y1="803.02" x2="11.83" y2="842.82" gradientTransform="translate(503.85 -481.02)" xlink:href="#linear-gradient"/><linearGradient id="linear-gradient-7" x1="-3.03" y1="838" x2="7.1" y2="841.58" gradientTransform="translate(509.06 -485.42)" xlink:href="#linear-gradient"/><linearGradient id="linear-gradient-8" x1="2.31" y1="834.24" x2="7.73" y2="844.5" gradientTransform="translate(506.17 -491.41)" xlink:href="#linear-gradient"/><linearGradient id="linear-gradient-9" x1="95.56" y1="785.91" x2="109.29" y2="859.62" gradientTransform="translate(326.77 -663.44)" xlink:href="#linear-gradient"/><linearGradient id="linear-gradient-10" x1="13.96" y1="773.2" x2="42.51" y2="844.08" gradientTransform="translate(497.09 -348.62)" xlink:href="#linear-gradient"/><linearGradient id="linear-gradient-11" x1="156.42" y1="632.67" x2="146.26" y2="1079.63" xlink:href="#linear-gradient"/><linearGradient id="linear-gradient-12" x1="94.84" y1="837.98" x2="94.84" y2="776.93" gradientTransform="translate(347.67 -320.81)" xlink:href="#linear-gradient"/><linearGradient id="linear-gradient-13" x1="173.37" y1="716.54" x2="177.29" y2="422.47" gradientTransform="translate(256.98 -415.75)" xlink:href="#linear-gradient"/><linearGradient id="linear-gradient-14" x1="11.83" y1="803.02" x2="11.83" y2="842.82" gradientTransform="translate(351.04 -486.16)" xlink:href="#linear-gradient"/><linearGradient id="linear-gradient-15" x1="-3.03" y1="838" x2="7.1" y2="841.58" gradientTransform="translate(356.24 -490.56)" xlink:href="#linear-gradient"/><linearGradient id="linear-gradient-16" x1="2.31" y1="834.24" x2="7.73" y2="844.5" gradientTransform="translate(353.35 -496.55)" xlink:href="#linear-gradient"/><clipPath id="clip-path" transform="translate(-80.16 -81.76)"><path class="cls-17" d="M197.34,777.56c3.59,18,8.16,43,12,64.33H491.24c-1-16.5-2.31-36.94-2.93-44.8a22.06,22.06,0,0,0-11.37-17.49l-.76-.38-.39-.77s-4.9-9.53-5-13.72c-.15-.59-.43-1.76-.68-3.18a209.5,209.5,0,0,1-70.86-23.43C380.83,728,365.19,718,352.15,707.28s-23.64-22.21-31.77-35.22l-.91-1.48C311.81,658,309.4,649,309.42,642.76a19.82,19.82,0,0,1,.62-5c-22.81,9.48-104.72,43.88-125.39,57.82a178.32,178.32,0,0,0-20,15.27c5.93,7.23,26,33.64,32.66,66.67m282.75-2.21c2.83,1.67,12.43,8.22,13.46,21.33.61,7.78,1.92,28.56,2.94,45.21H517c-1.84-20.67-4.63-46.77-7.46-53.37a33.79,33.79,0,0,0-14.69-15.72l-1.36-.67-.1-1.5-.83-11.24a61.76,61.76,0,0,1-8.13.6c-1.85.85-8.11,3.8-8.34,5C475.75,766.49,479,773.15,480.09,775.35Zm3.81-20.61c.13,0,42.76,1.57,56.05-39.61,12.56-38.89-15.87-73.81-19.74-78.33l-16.07-5.67-.81.68c1.4,1.36,3.57,3.51,6.91,6.91,4.89,5,14.18,17.56,20,31.15,4,9.24,6.36,19,4.84,27.44a58.76,58.76,0,0,1-22.89,36.13c-8.27,6-18.89,10.3-32.17,11.22-1.56,3-5.23,10.22-5.15,12.33a21.86,21.86,0,0,0,.22,2.26,52.94,52.94,0,0,1,7.67-4.28l.54-.24Zm-14.2,1.48c.4-2.91,2.64-7.89,4.36-11.38-1.31,0-2.63-.05-4-.13-19-1-38.06-7.17-56.32-16.48-21.23-10.81-41.44-25.94-59.25-42.26-33.7-30.9-31.24-50.39-31.24-50.45l.11-1,.78-.67.3-.26L317.58,635c-1.39,1-2.9,3.38-2.92,7.75,0,5.38,2.21,13.42,9.29,25.08l.88,1.42c7.81,12.48,17.95,23.52,30.65,33.92s28.16,20.31,46.35,30.32A204.86,204.86,0,0,0,469.7,756.22Zm28,2.29.76,10.34c3.25,1.92,11.54,7.6,15.84,17.6,3.08,7.15,6,34.32,7.89,55.44H665.88c3-41.45,4.08-107.84-15.12-145.93-18-13.63-41.57-21.47-63.13-28.65-14.27-4.76-27.68-9.22-38.25-14.9L531,642.52c9.57,14.38,24,43,13.93,74.21C535.53,745.87,512.68,755.41,497.73,758.51ZM660,704c15,39.73,13.94,99.37,11.16,137.89h42.53C705,808.37,682.53,727.94,660,704ZM204,841.89c-3.78-21.1-8.26-45.53-11.81-63.3-6.32-31.58-25.42-56.88-31.33-64.11-2.17,2.12-4.26,4.33-6.3,6.67-8.64,9.87-16.42,22-24.91,39.14-9,18.15-22.5,52.79-33.29,81.6Z"/></clipPath><clipPath id="clip-path-2" transform="translate(-80.16 -81.76)"><path class="cls-17" d="M529.92,696.39c1.32-7.27-.9-16-4.51-24.47-5.54-12.94-14.3-24.84-18.9-29.52-7.74-7.88-8.67-8.57-8.67-8.58l-1.21-.87.13-1.48,9-102.37c-15-5.15-113.79-38.3-152.17-30.38-.13,14-1,95-3.29,107.28-.82,4.41-3.25,9.08-6.25,13.45a97.88,97.88,0,0,1-9.36,11.4c-2.67,2.84-5,5-6.2,6.14.06,3.91,2.15,20,29.59,45.12,17.46,16,37.28,30.84,58.1,41.45,17.67,9,36,14.94,54.21,15.92,16.67.9,29.4-3.5,38.76-10.29a53.34,53.34,0,0,0,20.81-32.8"/></clipPath><mask id="mask" x="200.23" y="94.84" width="312.52" height="449.33" maskUnits="userSpaceOnUse"><g transform="translate(-80.16 -81.76)"><rect class="cls-1" x="280.38" y="176.6" width="312.52" height="449.33"/></g></mask><mask id="mask-2" x="254.69" y="322.99" width="53.34" height="72.97" maskUnits="userSpaceOnUse"><g transform="translate(-80.16 -81.76)"><rect class="cls-2" x="334.84" y="404.75" width="53.34" height="72.97"/></g></mask><mask id="mask-3" x="246.62" y="41.39" width="201.68" height="55.29" maskUnits="userSpaceOnUse"><g transform="translate(-80.16 -81.76)"><rect class="cls-9" x="326.77" y="123.15" width="201.68" height="55.29"/></g></mask><mask id="mask-4" x="416.93" y="333.48" width="51.84" height="78.03" maskUnits="userSpaceOnUse"><g transform="translate(-80.16 -81.76)"><rect class="cls-10" x="497.09" y="415.24" width="51.84" height="78.03"/></g></mask><mask id="mask-5" x="200.23" y="139.76" width="312.52" height="404.42" maskUnits="userSpaceOnUse"><g transform="translate(-80.16 -81.76)"><rect class="cls-11" x="280.38" y="221.52" width="312.52" height="404.42"/></g></mask><mask id="mask-6" x="267.51" y="393.08" width="189.69" height="46.24" maskUnits="userSpaceOnUse"><g transform="translate(-80.16 -81.76)"><rect class="cls-12" x="347.67" y="474.84" width="189.69" height="46.24"/></g></mask><clipPath id="clip-path-3" transform="translate(-80.16 -81.76)"><path class="cls-17" d="M442.22,478.81s25.68-6.47,41.76-5.1,29.34,9,35.29,12.55,6.93,3.39,6.93,3.39l-8.4,12.69s-13.14,24.31-33.53,31.27-50.68,4.11-76,2.45-35.48-17.35-42.25-28a140,140,0,0,1-11.27-22.84l8.73-4.41s36.85-17.45,78.71-2"/></clipPath><clipPath id="clip-path-4" transform="translate(-80.16 -81.76)"><path class="cls-17" d="M275.22,402.45s-4.42-27.34-4.62-32.73.1-20.33.1-20.33c-2.46-3.08-5.9-6.17-9.8-6.17a2.45,2.45,0,0,0-1.32.3,2.55,2.55,0,0,0-.92,1.39,10.27,10.27,0,0,0-.42,3.22,30.92,30.92,0,0,0,2.25,11.07,41,41,0,0,1,3.52,7.34,16.35,16.35,0,0,1,1.12,6.26,55.71,55.71,0,0,0,.25,7.15c.23,3.32.53,7.56.63,13.39a77.62,77.62,0,0,0,1.54,14.3A110.38,110.38,0,0,0,271,420c2.88,8.74,2.68,20.34,2.68,20.37v.41l-.13.39c0,.06-6,17.72,4.33,24.51-1.27-19.55-2.1-42.94-2.63-63.23"/></clipPath><clipPath id="clip-path-5" transform="translate(-80.16 -81.76)"><path class="cls-17" d="M588,471c12.13-6.91,4-20,3.94-20.09l-.3-.5-.07-.61a78.44,78.44,0,0,1,.2-14.15l.15-1.36c-.92,7.45-1.74,14.19-2.21,19.31l-.26,2.93c-.37,4.1-.81,9-1.45,14.47m10.5-109.19-1.23,21.8c-.8,14.23-2.93,31.32-4.81,46.32l-.53,4.26c.83-6.6,2.49-10,5.62-16.33l1-2.14c2.71-5.55,5.44-21.93,7.11-32,.62-3.76,1.11-6.65,1.43-8a33.33,33.33,0,0,1,1.5-4.18c2-4.9,5-12.4,1-15.41C605.3,353,600,359.78,598.47,361.83Z"/></clipPath><clipPath id="clip-path-6" transform="translate(-80.16 -81.76)"><path class="cls-17" d="M280.54,402.65s-1.21-50.83,3.1-87.49,12-53.13,12-53.13-5.68-24.11-.39-39.8S340.3,157,367.75,146.36s45.58-4.8,45.58-4.8l-10.09-4.51,19.31,6.18-12.06-7.06,15.39,5.64-10.1-7.31,14.51,7.85-5.49-7.26,13,9.9L430,135.78l15.34,10.93-8.19-11.42,12,10.39-6.22-11.81,11.86,13.42-2.26-10.68,9.17,11.67.59-10,7.05,12.15-.19-10.68,4,10.78,1.86-9V152l4.95-9.31s.44,10.88.44,10.39,4.46-8.19,4.46-8.19l2,8.48,4.22-7.84-1,9.61s10.68-9.41,31.36,7.25,29.9,26.66,42.25,48.33S582,248,584,268.45s2.06,27.65,2.06,27.65,2.94,18,4.12,36.46,2.68,33.52,2.68,33.52l3.68,26.79s2-31.1,4.32-39.62c0,0,4.51-8.68,4.36-15.25s-.49-16-.49-16l2.8,15.39S606.44,308,603.7,287s.09-31.56-7.36-52.25-28.13-38.23-40.87-46.17c0,0,4.7-12-20.1-35.29s-47.54-52.73-47.54-52.73l11.47,19.65s-13.14-20.73-21.37-23.33-12.4-4.07-12.4-4.07,9.88,3.73,12.74,5.42,10.52,11.49,10.52,11.49a53.33,53.33,0,0,0-13.73-11.42c-8.4-4.8-31.73-9.16-31.73-9.16l18,6.47-18.24-4.91a53.7,53.7,0,0,0-23.18-6c-13.68-.44-29.6,7.16-29.6,7.16s16.41-5.64,28.91-4.75S439.06,92,438.82,92s-12.83-3.2-25.19-3.14-19.56,4-30.83,5.93-18.77,2.94-27.65,9.07S332,130.48,332,130.48s9.95-19.06,18.23-25.48,15.59-7.21,15.59-7.21-9.27-.19-21.18,9.36-20.63,31-25.48,39.07S285.5,188,278.05,207.83s-12.35,53.81-13.62,65.67-1.67,36.66-1.67,36.66l3.09-29.5s-.29,14.85-.29,21-.15,9.41-.15,9.76-2.06,10.38-.69,19,6,19,6,19-.29,14.93-.1,20.33,4.62,32.73,4.62,32.73Z"/></clipPath><mask id="mask-7" x="176.82" y="0" width="347.99" height="344.37" maskUnits="userSpaceOnUse"><g transform="translate(-80.16 -81.76)"><rect class="cls-13" x="256.98" y="81.76" width="347.99" height="344.37"/></g></mask><clipPath id="clip-path-7" transform="translate(-80.16 -81.76)"><path class="cls-17" d="M487,506.17c-9,2.5-24.44,5.34-44.41,4.4s-31.5-2.47-40.68-4.15c-13.38-1-18.19-3.44-18.19-3.44l-1.11,2c5.84,4.7,14.09,9.53,22.83,9,16.56-1.08,59.5.78,74.2,1,7.2.09,13.12-3.19,17.3-6.57l-.05-2.21-9.89.06"/></clipPath><clipPath id="clip-path-8" transform="translate(-80.16 -81.76)"><path class="cls-17" d="M336.83,345.52s7.55-12,25.1-9.9,26.37,12,31.61,14.22l-13.14.29S347,361.5,336.83,345.52"/></clipPath><clipPath id="clip-path-9" transform="translate(-80.16 -81.76)"><path class="cls-17" d="M362.87,328a15.38,15.38,0,1,1-15.38,15.38A15.38,15.38,0,0,1,362.87,328"/></clipPath><mask id="mask-8" x="270.88" y="261.99" width="23.66" height="11.98" maskUnits="userSpaceOnUse"><g transform="translate(-80.16 -81.76)"><rect class="cls-14" x="351.04" y="343.76" width="23.66" height="11.98"/></g></mask><mask id="mask-9" x="276.09" y="266.55" width="7.43" height="3.01" maskUnits="userSpaceOnUse"><g transform="translate(-80.16 -81.76)"><rect class="cls-15" x="356.24" y="348.31" width="7.43" height="3.01"/></g></mask><mask id="mask-10" x="273.19" y="256.49" width="8.95" height="7.09" maskUnits="userSpaceOnUse"><g transform="translate(-80.16 -81.76)"><rect class="cls-16" x="353.35" y="338.25" width="8.95" height="7.09"/></g></mask><mask id="mask-11" x="218.2" y="213.2" width="111.55" height="43.46" maskUnits="userSpaceOnUse"><g transform="translate(-80.16 -81.76)"><rect class="cls-3" x="298.36" y="294.96" width="111.55" height="43.46"/></g></mask><mask id="mask-12" x="388.31" y="221.87" width="107.99" height="42.07" maskUnits="userSpaceOnUse"><g transform="translate(-80.16 -81.76)"><rect class="cls-4" x="468.47" y="303.63" width="107.99" height="42.07"/></g></mask><clipPath id="clip-path-10" transform="translate(-80.16 -81.76)"><path class="cls-17" d="M298.3,319.08c-9.32,10.88-6,32.55-4.51,43.72s7.94,30.78,23.43,35.39,61.07,8.53,77-1.86,26.57-35.68,26.76-50.88-3.33-21.86-17.84-27.64c-17-6.78-90.8-15.18-104.88,1.27m229.57-2.94s-41,.2-53.32,8.53-9,37.25-1.38,53.13,14.51,28.43,53.92,29.11,51.07-6.76,57.15-26.76,7-33.13,3.92-44.89S563.16,315.85,527.87,316.14Zm-256.77,7.8,1.27,17.84,5,3.53,3.92-8.43s5,27.35,9.12,43.23,15.19,20.48,28.91,24.8,64.41,10.39,83.32-5.3,22.45-40.29,25.1-46,4.51-13.53,11-14.12,15,.74,16.42,3.19,7.69,47.44,29,60.48,56.17,12.16,77.93,7.45,26.18-20.1,29.51-29.41,4.9-25.48,8.23-31.07a65.58,65.58,0,0,1,5.79-8.43s1.17-19.8.68-20.59a4.56,4.56,0,0,0-1.27-1.27,328.14,328.14,0,0,0-82.25-11.37c-45.09-.3-61.85,14.21-61.85,14.21s-24.21-2.84-35.39-.29c0,0-13.62-16.86-65.58-19.71s-84.39,5.79-84.39,5.79Z"/></clipPath><mask id="mask-13" x="195.89" y="200.82" width="326.77" height="72.63" maskUnits="userSpaceOnUse"><g transform="translate(-80.16 -81.76)"><rect class="cls-5" x="276.04" y="282.58" width="326.77" height="72.63"/></g></mask><clipPath id="clip-path-11" transform="translate(-80.16 -81.76)"><path class="cls-17" d="M487.78,352.83l7-4.56s14.76-11,27.35-8.63,20.1,12.4,20.1,12.4-10.89,8.24-24.31,6.92a132.28,132.28,0,0,1-24.14-4.83c-.25,0-6-1.3-6-1.3"/></clipPath><clipPath id="clip-path-12" transform="translate(-80.16 -81.76)"><path class="cls-17" d="M515.68,333.09a15.38,15.38,0,1,1-15.37,15.38,15.38,15.38,0,0,1,15.37-15.38"/></clipPath><mask id="mask-14" x="423.7" y="267.13" width="23.66" height="11.98" maskUnits="userSpaceOnUse"><g transform="translate(-80.16 -81.76)"><rect class="cls-6" x="503.85" y="348.89" width="23.66" height="11.98"/></g></mask><mask id="mask-15" x="428.9" y="271.69" width="7.42" height="3.01" maskUnits="userSpaceOnUse"><g transform="translate(-80.16 -81.76)"><rect class="cls-7" x="509.06" y="353.45" width="7.42" height="3.01"/></g></mask><mask id="mask-16" x="426.01" y="261.63" width="8.95" height="7.09" maskUnits="userSpaceOnUse"><g transform="translate(-80.16 -81.76)"><rect class="cls-8" x="506.17" y="343.39" width="8.95" height="7.09"/></g></mask></defs><title>avatar</title><path class="cls-18" d="M353.55,498.72c-.13,14-1,95-3.29,107.28-.82,4.41-3.25,9.08-6.25,13.45a97.88,97.88,0,0,1-9.36,11.4c-2.67,2.84-5,5-6.2,6.14.06,3.91,2.15,20,29.59,45.12,17.46,16,37.28,30.84,58.1,41.45,17.67,9,36,14.94,54.21,15.92,16.67.9,29.4-3.5,38.76-10.29a53.34,53.34,0,0,0,20.81-32.8c1.32-7.27-.9-16-4.51-24.47-5.54-12.94-14.3-24.84-18.9-29.52-7.74-7.88-8.67-8.57-8.67-8.58l-1.21-.87.13-1.48,9-102.37c-15-5.15-113.79-38.3-152.17-30.38M520.21,636.8l-16.07-5.67-.81.68c1.4,1.36,3.57,3.51,6.91,6.91,4.89,5,14.18,17.56,20,31.15,4,9.24,6.36,19,4.84,27.44a58.76,58.76,0,0,1-22.89,36.13c-8.27,6-18.89,10.3-32.17,11.22-1.56,3-5.23,10.22-5.15,12.33a21.86,21.86,0,0,0,.22,2.26,52.94,52.94,0,0,1,7.67-4.28l.54-.24h.6c.13,0,42.76,1.57,56.05-39.61C552.51,676.24,524.08,641.32,520.21,636.8Zm-205.79-6.44,17-3.7a90.49,90.49,0,0,0,8.29-10.17c2.64-3.85,4.77-7.86,5.43-11.43,2.41-13,3.23-108.18,3.23-108.45l0-2,1.94-.5c41.4-10.7,158.74,30.61,159.07,30.72l1.94.68-.18,2-8.58,98.1.52-.44,1.41.5,18.12,6.41.19.06.18.1,28.9,15.54c10.23,5.5,23.39,9.89,37.4,14.55,25.43,8.47,53.59,17.85,73,36.57,24.21,23.33,48.11,109.28,56.76,143h-5.41C705,808.37,682.53,727.94,660,704c15,39.73,13.94,99.37,11.16,137.89h-5.24c3-41.45,4.08-107.84-15.12-145.93-18-13.63-41.57-21.47-63.13-28.65-14.27-4.76-27.68-9.22-38.25-14.9L531,642.52c9.57,14.38,24,43,13.93,74.21-9.41,29.14-32.26,38.68-47.21,41.78l.76,10.34c3.25,1.92,11.54,7.6,15.84,17.6,3.08,7.15,6,34.32,7.89,55.44H517c-1.84-20.67-4.63-46.77-7.46-53.37a33.79,33.79,0,0,0-14.69-15.72l-1.36-.67-.1-1.5-.83-11.24a61.76,61.76,0,0,1-8.13.6c-1.85.85-8.11,3.8-8.34,5-.31,1.53,2.92,8.19,4,10.39,2.83,1.67,12.43,8.22,13.46,21.33.61,7.78,1.92,28.56,2.94,45.21h-5.25c-1-16.5-2.31-36.94-2.93-44.8a22.06,22.06,0,0,0-11.37-17.49l-.76-.38-.39-.77s-4.9-9.53-5-13.72c-.15-.59-.43-1.76-.68-3.18a209.5,209.5,0,0,1-70.86-23.43C380.83,728,365.19,718,352.15,707.28s-23.64-22.21-31.77-35.22c-.12-.18-.41-.67-.91-1.48C311.81,658,309.4,649,309.42,642.76a19.82,19.82,0,0,1,.62-5c-22.81,9.48-104.72,43.88-125.39,57.82a178.32,178.32,0,0,0-20,15.27c5.93,7.23,26,33.64,32.66,66.67,3.59,18,8.16,43,12,64.33H204c-3.78-21.1-8.26-45.53-11.81-63.3-6.32-31.58-25.42-56.88-31.33-64.11-2.17,2.12-4.26,4.33-6.3,6.67-8.64,9.87-16.42,22-24.91,39.14-9,18.15-22.5,52.79-33.29,81.6H90.77c10.94-29.28,24.9-65.21,34.18-83.92,8.69-17.53,16.72-30,25.66-40.27s18.8-18.15,31.1-26.44c24.46-16.49,132-60.63,132.27-60.76l.25-.1Zm10,3.19L317.58,635c-1.39,1-2.9,3.38-2.92,7.75,0,5.38,2.21,13.42,9.29,25.08.08.14.39.63.88,1.42,7.81,12.48,17.95,23.52,30.65,33.92s28.16,20.31,46.35,30.32a204.86,204.86,0,0,0,67.87,22.69c.4-2.91,2.64-7.89,4.36-11.38-1.31,0-2.63-.05-4-.13-19-1-38.06-7.17-56.32-16.48-21.23-10.81-41.44-25.94-59.25-42.26-33.7-30.9-31.24-50.39-31.24-50.45l.11-1,.78-.67Z" transform="translate(-80.16 -81.76)"/><path class="cls-19" d="M197.34,777.56c3.59,18,8.16,43,12,64.33H491.24c-1-16.5-2.31-36.94-2.93-44.8a22.06,22.06,0,0,0-11.37-17.49l-.76-.38-.39-.77s-4.9-9.53-5-13.72c-.15-.59-.43-1.76-.68-3.18a209.5,209.5,0,0,1-70.86-23.43C380.83,728,365.19,718,352.15,707.28s-23.64-22.21-31.77-35.22l-.91-1.48C311.81,658,309.4,649,309.42,642.76a19.82,19.82,0,0,1,.62-5c-22.81,9.48-104.72,43.88-125.39,57.82a178.32,178.32,0,0,0-20,15.27c5.93,7.23,26,33.64,32.66,66.67m282.75-2.21c2.83,1.67,12.43,8.22,13.46,21.33.61,7.78,1.92,28.56,2.94,45.21H517c-1.84-20.67-4.63-46.77-7.46-53.37a33.79,33.79,0,0,0-14.69-15.72l-1.36-.67-.1-1.5-.83-11.24a61.76,61.76,0,0,1-8.13.6c-1.85.85-8.11,3.8-8.34,5C475.75,766.49,479,773.15,480.09,775.35Zm3.81-20.61c.13,0,42.76,1.57,56.05-39.61,12.56-38.89-15.87-73.81-19.74-78.33l-16.07-5.67-.81.68c1.4,1.36,3.57,3.51,6.91,6.91,4.89,5,14.18,17.56,20,31.15,4,9.24,6.36,19,4.84,27.44a58.76,58.76,0,0,1-22.89,36.13c-8.27,6-18.89,10.3-32.17,11.22-1.56,3-5.23,10.22-5.15,12.33a21.86,21.86,0,0,0,.22,2.26,52.94,52.94,0,0,1,7.67-4.28l.54-.24Zm-14.2,1.48c.4-2.91,2.64-7.89,4.36-11.38-1.31,0-2.63-.05-4-.13-19-1-38.06-7.17-56.32-16.48-21.23-10.81-41.44-25.94-59.25-42.26-33.7-30.9-31.24-50.39-31.24-50.45l.11-1,.78-.67.3-.26L317.58,635c-1.39,1-2.9,3.38-2.92,7.75,0,5.38,2.21,13.42,9.29,25.08l.88,1.42c7.81,12.48,17.95,23.52,30.65,33.92s28.16,20.31,46.35,30.32A204.86,204.86,0,0,0,469.7,756.22Zm28,2.29.76,10.34c3.25,1.92,11.54,7.6,15.84,17.6,3.08,7.15,6,34.32,7.89,55.44H665.88c3-41.45,4.08-107.84-15.12-145.93-18-13.63-41.57-21.47-63.13-28.65-14.27-4.76-27.68-9.22-38.25-14.9L531,642.52c9.57,14.38,24,43,13.93,74.21C535.53,745.87,512.68,755.41,497.73,758.51ZM660,704c15,39.73,13.94,99.37,11.16,137.89h42.53C705,808.37,682.53,727.94,660,704ZM204,841.89c-3.78-21.1-8.26-45.53-11.81-63.3-6.32-31.58-25.42-56.88-31.33-64.11-2.17,2.12-4.26,4.33-6.3,6.67-8.64,9.87-16.42,22-24.91,39.14-9,18.15-22.5,52.79-33.29,81.6Z" transform="translate(-80.16 -81.76)"/><g class="cls-20"><path class="cls-21" d="M568.06,736s-.27,19.76-10.36,34.48l-10.08,14.72-7.51-57L495,757.22s25.08,7.22,30.8,15.4,13.4,79.77,13.36,78-19.36-4.77-19.36-4.77l-7.22-54s-.82,10.76-4.5,14.58-9.33,5-9.33,5l5.31,45.12s-235.78,14.28-235.65,12.13a253,253,0,0,0-3-57.79c-5.18-30.81-52.61-75-52.61-75s35.55-74.16,65.61-90.5,30.21-18.09,31.16-15.8S96.93,685,81.82,713.88s77.92,1.71,77.92,1.71.64,24.93,4.31,35.16,37.34,60.57,37.34,60.57-13.93,57.11-14.2,55.48-31.68-97.78-38-114-8.58-28.93-7-27.77S107.68,798,107.68,798s15.31-25.5,21.58-22.23,11.38,24.44,20.82,36.28,19,17.56,19,17.56,6,6.78,6,7.9-39.25-18.41-39.25-18.41l-17.52-6.93L95.87,871s520.37,90.77,634.31-.82S542.64,620,542.64,620l61.69,36.51s-7.72,15.28-17,54.81S577,758.72,577,758.72l-5.37-69.21s-7.17,14.69-3.56,46.45" transform="translate(-80.16 -81.76)"/><path class="cls-22" d="M523.77,677.49l21.39,5.18-3.95-12.27s10.09,3.13,18.4,31.48S568.06,739,568.06,736s7.23-30.81,3.14-48.52-24.67-31.62-24.67-31.62-34.48-53.7-55.2-43.48,32.44,65.15,32.44,65.15M181.26,847.85s-27.4-.34-40.75-9.23-12.81-12.85-16.63-18.3-5.59-8.17-5.59-8.17l49.89,19.76s-18.4-9.41-19.09-25.49,4.64-18.4,2.87-33.26-3-21.94-3-21.94l38.71,100.31s2.45-25.62-3.82-46.2S163,749.18,163,749.18l17.71,26.3s14.18,12.13,16.36,19.63,5.59,21.26,5.59,21.26,10.9-16,10.63-16.76-18.4-78.1-17.58-76.47,40.61,74.25,48.52,94.87a72.86,72.86,0,0,1,3.27,39.52s234.42,7.36,234.15,6-1.91-47.84-1.91-47.84,9.95-5,11-8.72-2.18-22-4.08-24.4-16.54-21-16.54-21l-27.84-5.89,23,18.46,4.22,53.56S457.8,794,453,782.84s-35.57-38.71-35.57-38.71,44,17.18,52.47,14.18,9.13-25.22,9.13-25.22l51.39-30.39s4,27.78-7.56,38.42S495,757.22,495,757.22l-1.55,14.91s-7.66,11.17-6.76,10.44,5.78,21.94,5,21.94,3.41,45.25,3.41,45.25l168.32-3.82a145,145,0,0,1-13.22-39.25c-4.09-22.49,5.45-46.07,7-58.06s-4.91-38.84-4.91-38.84S663.2,723.42,667,755s5.65,54.11,5.65,54.11l-1.33-98.78,45,91.14s18,48.8,17.17,54.52-31.34-.54-31.34-.54l-7.09-47.44s1.36,31.08-6.41,38.85-9,8.59-8.86,7.77S678.6,844,678.6,844s6.13-21.13,4.09-43.75-5.18-29.17-5.18-35.85v-6.68l-8.32,89.55S235.37,893.78,181.26,847.85Z" transform="translate(-80.16 -81.76)"/></g><path class="cls-23" d="M529.92,696.39c1.32-7.27-.9-16-4.51-24.47-5.54-12.94-14.3-24.84-18.9-29.52-7.74-7.88-8.67-8.57-8.67-8.58l-1.21-.87.13-1.48,9-102.37c-15-5.15-113.79-38.3-152.17-30.38-.13,14-1,95-3.29,107.28-.82,4.41-3.25,9.08-6.25,13.45a97.88,97.88,0,0,1-9.36,11.4c-2.67,2.84-5,5-6.2,6.14.06,3.91,2.15,20,29.59,45.12,17.46,16,37.28,30.84,58.1,41.45,17.67,9,36,14.94,54.21,15.92,16.67.9,29.4-3.5,38.76-10.29a53.34,53.34,0,0,0,20.81-32.8" transform="translate(-80.16 -81.76)"/><g class="cls-24"><path class="cls-25" d="M483.56,632.51S477.5,652.92,445.51,654,407.24,647,407.24,647l15.26,63.78s-13.35,20.17-45-2.72-22.07-60.79-22.07-60.79l-4.05-54.46-42.29,25.84s-59.7,89.95,66.78,129.2,121-56.69,121-56.69L487.1,659.5l15.75-37.31Z" transform="translate(-80.16 -81.76)"/><path class="cls-26" d="M333.09,550.46s63.52,72.78,98.41,96.22S480.56,644,480.56,644v59.15s25.08-8.18,22.9-27c0,0,53.16,14.45,58.61,45.25s79.87-81.77-30.26-182.08S326.28,447.7,333.09,550.46" transform="translate(-80.16 -81.76)"/></g><path class="cls-23" d="M295.6,262s-7.64,16.47-12,53.13-3.1,87.49-3.1,87.49c.89,33.61,2.58,75.55,5.73,94.11,2.39,14.1,9.06,28.69,17.16,41.76,10.71,17.26,23.87,31.81,33,39.13,16.44,13.11,44.08,32.19,44.16,32.24.55.38,14.15,9.57,27.92,12.83,8.3,2,27.23,3.73,45.13,3.08,12.62-.45,24.64-2.1,31.78-5.71,17.56-8.87,35.21-29.49,35.26-29.55l.15-.16c.07-.07,25.61-25,42.68-55.09,16-28.24,19-61.42,20.57-79.2l.27-2.95c.62-6.74,1.64-14.91,2.75-23.83,1.87-15,4-32.07,4.79-46l1-17.26s-1.51-15.09-2.68-33.52-4.12-36.46-4.12-36.46,0-7.16-2.06-27.65-8-36.07-20.39-57.73-21.56-31.66-42.25-48.33S490,155.14,490,155.14l1-9.61-4.22,7.84-2-8.48s-4.46,7.7-4.46,8.19-.44-10.39-.44-10.39L475,152V141.51l-1.86,9-4-10.78.19,10.68-7.05-12.15-.59,10-9.17-11.67,2.26,10.68-11.86-13.42,6.22,11.81-12-10.39,8.19,11.42L430,135.78l7.84,9.21-13-9.9,5.49,7.26-14.51-7.85,10.1,7.31-15.39-5.64,12.06,7.06-19.31-6.18,10.09,4.51s-18.13-5.78-45.58,4.8-67.25,60.19-72.54,75.87.39,39.8.39,39.8" transform="translate(-80.16 -81.76)"/><path class="cls-27" d="M443.7,400.23a14.46,14.46,0,1,1-14.45,14.46,14.46,14.46,0,0,1,14.45-14.46" transform="translate(-80.16 -81.76)"/><path class="cls-27" d="M349.94,404.06s23,2,38.93-3.26S404.49,387,404.49,387s-7.4-5.94-15.73-5.55-38.82,22.65-38.82,22.65" transform="translate(-80.16 -81.76)"/><path class="cls-27" d="M485.69,396.13c7.51,6.31,19.37,10.4,41.4,10.78q3.72.07,7.12,0c-5.19-4.4-14.31-10.4-25.57-11.52a83.42,83.42,0,0,0-22.95.7" transform="translate(-80.16 -81.76)"/><g class="cls-28"><path class="cls-25" d="M481,376.72s6.2,22.8,5,24.83,28.92,45.68,60.48,45,24.7-26.86,24.7-26.86-63.48-10.41-63.71-9.21,30.94,8.45,46.84-5,8.44-31.67,7.46-31.28-23.72,11.17-80.77,2.55M322,478.27s12.94,21.18,21.77,39.21a122.27,122.27,0,0,1,10.78,36.08,73.62,73.62,0,0,1-22.88-21.69C321.82,517.29,322,478.27,322,478.27Zm82.55-65.62a26.88,26.88,0,0,1,8.91,14.16s-8.24-2.36-14.51,2-13.63,3.43-14.7,1.57l10.09,17.54S374,463.37,361.61,464s-12.74,2-12.54.39,38.44-47.44,38.44-47.44S392.59,404,404.56,412.65ZM545,493.27l-15.6,46.36s20.19-17.45,25.49-32.35S558.45,483,558.45,483ZM373.31,570s14.77,41.39,48.1,46.09,50,2.75,64.5-6.66,20.58-28,20.58-28S459,541.77,373.31,570Zm32.22-217.79,6.67,16.86-24,35.68-7.57,8.36s-44.87,44.37-68.8,32.81-14.12-41,2.55-40.58,24.7,2.65,24.7,2.65-23.92-2.45-28.23-14.22-.39-18.82-.39-18.82l20-3S379.26,395.93,405.53,352.21ZM366.71,502.08c-.59-.39-2.86-3.72-7.45-6.52s-7.65-2.1-7.75-1.42S347.69,537,431.4,538.55s97.44-35.09,97.44-35.09-25.11-11.84-44.7-.4S461,459.54,461,459.54l-14.61.79.14,13.26-4.31,1.1s-14.07-7-40.82-6.48S366.71,502.08,366.71,502.08ZM537.86,176.6l-13,127s-29.41,3.29-59.21,5.26S391.11,291.47,354.26,295s-41.88,10.16-41.23,8.11c.51-1.59-11.24-58.75-16.48-84.07a28.28,28.28,0,0,0-1.34,3.21c-5.29,15.69.39,39.8.39,39.8s-7.64,16.47-12,53.13-3.1,87.49-3.1,87.49c.89,33.61,2.58,75.55,5.73,94.11,2.39,14.1,9.06,28.69,17.16,41.76,10.71,17.26,23.87,31.81,33,39.13,16.44,13.11,44.08,32.19,44.16,32.24.55.38,14.15,9.57,27.92,12.83,8.3,2,27.23,3.73,45.13,3.08,12.62-.45,24.64-2.1,31.78-5.71,17.56-8.87,35.21-29.49,35.26-29.55l.15-.16c.07-.07,25.61-25,42.68-55.09,16-28.24,19-61.42,20.57-79.2l.27-2.95c.62-6.74,1.64-14.91,2.75-23.83,1.87-15,4-32.07,4.79-46l1-17.26s-1.51-15.09-2.68-33.52-4.12-36.46-4.12-36.46,0-7.16-2.06-27.65-8-36.07-20.39-57.73C555.16,195.82,548.15,186.43,537.86,176.6ZM429.78,348.85l.45,36.1S415.76,404.21,422,422s34.92,17.91,43,8.42c1.88-3.63,5.49-12.16,3.57-21.2-2.55-12-9.41-20.69-9.31-22.94l-.16-27.79c-.92-3.44-1.65-6.54-2.23-9.08C452.28,346.27,441.16,340.54,429.78,348.85Zm57.3,61.68s-6.57.39-8.14,5.1-3.33,14.11-3.33,14.11a27.61,27.61,0,0,0,16.07,2.16C500.26,430.25,500.11,415.53,487.08,410.53Z" transform="translate(-80.16 -81.76)"/></g><path class="cls-29" d="M399.35,541.2s7.45,16.27,38.82,24.31c0,0,32.93-4.71,42.34-21,0,0-47.88-6.92-81.16-3.33m-4.6-98.87s-29.42,2.12-42.16,14.08S349.85,487,349.85,487s21.07-20.39,50.77-18.82,42.25,6.76,42.25,6.76,16.57-7.54,43-4.41,41.26,17.16,41.26,17.16,11.87-16.77,1.28-28.63-48.11-18.7-48.11-18.7-25.13,14.92-40.21,10.18S418.88,435.36,394.75,442.33Z" transform="translate(-80.16 -81.76)"/><g class="cls-30"><path class="cls-26" d="M382.45,424.71s-28.38,17.69-37.2,31.12-8.82,22.54-8.63,21.86-6.27-12.85,4.32-28.82,47.25-44.12,47.25-44.12Z" transform="translate(-80.16 -81.76)"/></g><g class="cls-31"><path class="cls-32" d="M326.77,178.45s24.36-19.54,48.28-19.15,46,9.7,45.87,9.21-18.62-13.13-18.62-13.13l33.23,17.74L421.9,161.65s22.35,17,21.86,16.67-9.41-11.67-9.41-11.67L448,177,436.7,160.77s14.12,15.49,14,14.9-4.61-17.06-4.61-17.06l13,18-6-18.62s12.55,19.6,12.35,18.23-.78-19.61-.78-19.61l5.1,18.53,5.09-15.59-1.86,14,4.31-14.6s1,15.88,1.18,14,5.78-13.13,5.78-13.13-2.15,14.51-2.35,13.62.59-11.27,18.82-14,27.65,3.43,27.65,3.43-6.87-30.29-84.31-38.53-104.1,25.88-117.38,54" transform="translate(-80.16 -81.76)"/></g><g class="cls-33"><path class="cls-26" d="M500.35,431.52S538.75,456,545,468.57s0,24.7,0,24.7,7.35-12,1.86-29-48.92-49-48.92-49-3.13,4.08,2.38,16.28" transform="translate(-80.16 -81.76)"/></g><path class="cls-26" d="M414.44,386.2l-9.88,26.45s-8.53-4.22-14.12,2.25-4.72,16.68-2.12,19.87l2.6,3.19s4.52-8.55,21.58-4.43,19.41,10,26.46,14.6,14,.79,18.92-4.31,8.92-10.59,21.57-8.72,13.8,2.16,16.66-4.12-1.57-15.1-8-17.84a85.19,85.19,0,0,1-12.65-7l-1.57,7.15s1.86,15.79-9.9,18.92c0,0,7.16-11.07,4.61-23s-9.41-20.69-9.31-22.94-.2-35.19-.2-35.19L480.92,399s15.78,9.12,40.68,12.65,41.37.78,41.37.78-6.18,7.06-30.78,8S498,417.65,498,417.65s7.81,12.15-.36,21.91-34.35,7.89-34.35,7.89-7.15,7.64-17.74,7.74S425,445.78,425,445.78s-22.84,1.92-34.7-5.46-7.14-18.55-7.14-18.55l-1-8.93s-24.51,4.51-43.53.49-24-11.27-24-11.27,22.94,10.39,52.74,4.9,47-20.76,47-20.76" transform="translate(-80.16 -81.76)"/><path class="cls-26" d="M420.19,362,407,349.37l-6.41,2.33S385,360.84,362,361.53s-29.8-8.92-29.8-8.92l-18.82,12,6.42-8.29s-10.63,4.22-17.1,1.37a14,14,0,0,0,11-3.08c5.29-4.32,15.21-18.9,15.21-18.9l1.4,3.21s9.61-7,30.54-8.09,23.28.15,23.28.15l-22.3-25s35.87-2.45,52.24,10.68S420.19,362,420.19,362" transform="translate(-80.16 -81.76)"/><path class="cls-26" d="M468.22,371.17l17-12.09a78,78,0,0,0,35.58,5.58c19.41-1.76,24.22-6.27,24.22-6.27L565.51,368l-9.9-9.22s12.26,3.53,18.82.3c0,0-9.57.28-13.92-3.24s-10.41-13.23-10.41-13.23l-.46,7.4-64.4-8.28s24.5-19.32,36.85-24.12,13.23-5,13.23-5-55.78-3.72-67.44,9.71.34,48.85.34,48.85" transform="translate(-80.16 -81.76)"/><path class="cls-26" d="M478.27,360.25s6.47,18.82,40.19,19.8S555,367.6,555,367.6s-8.43,12.36-33.42,7.45S486,356.62,486,356.62Z" transform="translate(-80.16 -81.76)"/><path class="cls-26" d="M414.65,352.51s-18.23,25.29-51.95,26.27-36.56-12.45-36.56-12.45,8.43,12.35,33.42,7.45,44.11-28.92,44.11-28.92Z" transform="translate(-80.16 -81.76)"/><g class="cls-34"><path class="cls-26" d="M569.53,221.52c.09.22,10,24.41,9.57,45.1s-5.68,79.08-5.68,79.08l6.66,38.15s.59,66.47-7.45,105.48-33.13,71.36-33.13,71.36,25.09-48.62,26.86-70.58c0,0-6.28,26.67-26.67,54.11s-20.39,27.65-20.39,27.65-18.43,51.56-62.73,51S387,616,372.66,593.43s-41-61.56-41-61.56A54.75,54.75,0,0,0,334.82,555c4.51,12.75,5.88,17.45,5.88,17.45s-24.7-20.58-40.39-50.38S286.2,345.43,286.2,345.43l-4.44-8.65c-2,32.27-1.22,65.87-1.22,65.87.89,33.61,2.58,75.55,5.73,94.11,2.39,14.1,9.06,28.69,17.16,41.76,10.71,17.26,23.87,31.81,33,39.13,16.44,13.11,44.08,32.19,44.16,32.24.55.38,14.15,9.57,27.92,12.83,8.3,2,27.23,3.73,45.13,3.08,12.62-.45,24.64-2.1,31.78-5.71,17.56-8.87,35.21-29.49,35.26-29.55l.15-.16c.07-.07,25.61-25,42.68-55.09,16-28.24,19-61.42,20.57-79.2l.27-2.95c.62-6.74,1.64-14.91,2.75-23.83,1.87-15,4-32.07,4.79-46l1-17.26s-1.51-15.09-2.68-33.52-4.12-36.46-4.12-36.46,0-7.16-2.06-27.65c-1.7-16.92-6.08-30.5-14.51-46.93" transform="translate(-80.16 -81.76)"/></g><g class="cls-35"><path class="cls-26" d="M517.21,503.37c.59-1,20.53-15.1,20.14-21.18s-1.18-6.86-1.18-6.86-8.23,8.43-33.82,9.32-66.75,11-110.08,2.45-44.6-12.26-44.6-12.26,1.57,19.8,17.06,25.1,70.48,42.64,152.48,3.43" transform="translate(-80.16 -81.76)"/></g><path class="cls-36" d="M442.22,478.81s25.68-6.47,41.76-5.1,29.34,9,35.29,12.55,6.93,3.39,6.93,3.39l-8.4,12.69s-13.14,24.31-33.53,31.27-50.68,4.11-76,2.45-35.48-17.35-42.25-28a140,140,0,0,1-11.27-22.84l8.73-4.41s36.85-17.45,78.71-2" transform="translate(-80.16 -81.76)"/><g class="cls-37"><path class="cls-38" d="M416.14,521.16s-.29,9,16.87,10.88,21.46-6.18,21.46-6.18-22.54-9.51-38.33-4.7" transform="translate(-80.16 -81.76)"/><path class="cls-39" d="M389.38,468.81s10.25,24.57,17,25.19S441,495.09,441,495.09l1.2-16.28s60.87-20.19,73.81-12,12.16,73.72,10.79,73.91-90.19,12-87.44,9.41,42.34-23.72,41.56-25.09-44.5-14.7-66.27-10,5.89,32.15,5.89,32.15-81-15.09-81.17-18-67.59-78.63,50-60.39" transform="translate(-80.16 -81.76)"/><path class="cls-40" d="M364.88,466.26s5.1,30,61.56,36.66,87.44-31.36,87.44-31.36,35.87,18.62,37.44,19.21-54.89,52.54-54.89,52.54,24.11-19-22.94-29.7-88.81-7.16-92.54,6.17,7.85,26.28,6.47,23.92-53.91-69.59-53.91-69.59,31.45-7.45,31.37-7.85" transform="translate(-80.16 -81.76)"/></g><path class="cls-18" d="M277.85,465.68c-2.77-42.75-3.45-103.91-3.52-110.74-1.23-2.33-6.63-11.72-13.43-11.72a2.45,2.45,0,0,0-1.32.3,2.55,2.55,0,0,0-.92,1.39,10.27,10.27,0,0,0-.42,3.22,30.92,30.92,0,0,0,2.25,11.07,41,41,0,0,1,3.52,7.34,16.35,16.35,0,0,1,1.12,6.26,55.71,55.71,0,0,0,.25,7.15c.23,3.32.53,7.56.63,13.39a77.62,77.62,0,0,0,1.54,14.3A110.38,110.38,0,0,0,271,420c2.88,8.74,2.68,20.34,2.68,20.37v.41l-.13.39c0,.06-6,17.72,4.33,24.51m314-31.42c.82-6.63,2.48-10,5.62-16.38l1-2.14c2.71-5.55,5.44-21.93,7.11-32,.62-3.76,1.11-6.65,1.43-8a33.33,33.33,0,0,1,1.5-4.18c2-4.9,5-12.4,1-15.41-4.27-3.17-9.62,3.57-11.1,5.62l-1.23,21.8c-.8,14.23-2.93,31.32-4.81,46.32Zm4.89,14.47c1.84,3.32,10.31,20.78-9.63,28.56-2.52,17.95-7.51,40.41-19,60.62-16.95,29.85-42,54.74-43.51,56.19-1.27,1.47-18.95,21.72-36.81,30.75-7.9,4-20.69,5.79-34,6.27-18.38.66-37.92-1.17-46.53-3.21-15-3.54-29.66-13.6-29.71-13.63h0c-.08-.06-27.95-19.3-44.45-32.45-9.54-7.62-23.2-22.69-34.25-40.51-8.43-13.59-15.37-28.83-17.89-43.68-1.07-6.33-2-15.33-2.74-25.77-17-6.71-10.95-28.66-9.93-31.94,0-2-.11-11.21-2.43-18.25a114.79,114.79,0,0,1-3.58-13,82.52,82.52,0,0,1-1.64-15.28c-.1-5.47-.4-9.77-.63-13.13a57.09,57.09,0,0,1-.25-7.89,11.49,11.49,0,0,0-.83-4.1,35.45,35.45,0,0,0-3-6.22c-.71-1.09-3.13-8.18-3.13-14a15.59,15.59,0,0,1,.71-4.91,7.71,7.71,0,0,1,3.07-4.16,7.61,7.61,0,0,1,4.22-1.18c11.09,0,18.45,15.17,18.47,15.22l.26.53v.62c0,.32,1,109.16,6.63,142.51,2.39,14.1,9.06,28.69,17.16,41.76,10.71,17.26,23.87,31.81,33,39.13,16.44,13.11,44.08,32.19,44.16,32.24h0c.55.38,14.15,9.57,27.92,12.83,8.3,2,27.23,3.73,45.13,3.08,12.62-.45,24.64-2.1,31.78-5.71,17.56-8.87,35.21-29.49,35.26-29.55l.15-.16c.07-.07,25.61-25,42.68-55.09,16-28.24,19-61.42,20.57-79.2l.27-2.95c.62-6.74,1.64-14.91,2.75-23.83,1.87-15,4-32.07,4.79-46l1.27-22.55,0-.71.4-.6s9.58-14.61,19.09-7.54c7.35,5.46,3.4,15.26.81,21.66a32.79,32.79,0,0,0-1.28,3.45c-.25,1.05-.73,3.89-1.34,7.58-1.72,10.35-4.53,27.22-7.57,33.45l-1.06,2.15c-3.07,6.24-4.59,9.34-5.26,16A75.62,75.62,0,0,0,596.79,448.73ZM588,471c12.13-6.91,4-20,3.94-20.09l-.3-.5-.07-.61a78.44,78.44,0,0,1,.2-14.15c0-.47.1-.92.15-1.36-.92,7.45-1.74,14.19-2.21,19.31-.12,1.33-.19,2.07-.26,2.93C589.05,460.65,588.61,465.55,588,471Z" transform="translate(-80.16 -81.76)"/><path class="cls-25" d="M275.22,402.45s-4.42-27.34-4.62-32.73.1-20.33.1-20.33c-2.46-3.08-5.9-6.17-9.8-6.17a2.45,2.45,0,0,0-1.32.3,2.55,2.55,0,0,0-.92,1.39,10.27,10.27,0,0,0-.42,3.22,30.92,30.92,0,0,0,2.25,11.07,41,41,0,0,1,3.52,7.34,16.35,16.35,0,0,1,1.12,6.26,55.71,55.71,0,0,0,.25,7.15c.23,3.32.53,7.56.63,13.39a77.62,77.62,0,0,0,1.54,14.3A110.38,110.38,0,0,0,271,420c2.88,8.74,2.68,20.34,2.68,20.37v.41l-.13.39c0,.06-6,17.72,4.33,24.51-1.27-19.55-2.1-42.94-2.63-63.23" transform="translate(-80.16 -81.76)"/><g class="cls-41"><path class="cls-26" d="M283,376.28s-18.73-22-25.2-25-7,11.77-2.84,24.61,11.88,27.48,11.88,27.48-2.57-8.46.18-16,9.43-13.15,8.53-13.14,6.56,24.9,6.56,24.9-7.28-11.9-8.23-11.76-4.69,18-4.36,27.88,15.53,26.52,15.44,27.5-3,23.63-23.14,16.86-5,46.07,31.08,16.67-9.9-100-9.9-100" transform="translate(-80.16 -81.76)"/></g><path class="cls-25" d="M588,471c12.13-6.91,4-20,3.94-20.09l-.3-.5-.07-.61a78.44,78.44,0,0,1,.2-14.15l.15-1.36c-.92,7.45-1.74,14.19-2.21,19.31l-.26,2.93c-.37,4.1-.81,9-1.45,14.47m10.5-109.19-1.23,21.8c-.8,14.23-2.93,31.32-4.81,46.32l-.53,4.26c.83-6.6,2.49-10,5.62-16.33l1-2.14c2.71-5.55,5.44-21.93,7.11-32,.62-3.76,1.11-6.65,1.43-8a33.33,33.33,0,0,1,1.5-4.18c2-4.9,5-12.4,1-15.41C605.3,353,600,359.78,598.47,361.83Z" transform="translate(-80.16 -81.76)"/><g class="cls-42"><path class="cls-26" d="M590.56,390c.91.08,10.45-23.74,20.66-26.18s-4.78,13.64-7.53,22.65-7.35,31-7.35,31l-7.25-19.6s-6.47,46.75-1.08,55.77,20.09,4.9,20.09,4.9,11.37,57.05-36.27,20.39S590.56,390,590.56,390" transform="translate(-80.16 -81.76)"/></g><path class="cls-43" d="M280.54,402.65s-1.21-50.83,3.1-87.49,12-53.13,12-53.13-5.68-24.11-.39-39.8S340.3,157,367.75,146.36s45.58-4.8,45.58-4.8l-10.09-4.51,19.31,6.18-12.06-7.06,15.39,5.64-10.1-7.31,14.51,7.85-5.49-7.26,13,9.9L430,135.78l15.34,10.93-8.19-11.42,12,10.39-6.22-11.81,11.86,13.42-2.26-10.68,9.17,11.67.59-10,7.05,12.15-.19-10.68,4,10.78,1.86-9V152l4.95-9.31s.44,10.88.44,10.39,4.46-8.19,4.46-8.19l2,8.48,4.22-7.84-1,9.61s10.68-9.41,31.36,7.25,29.9,26.66,42.25,48.33S582,248,584,268.45s2.06,27.65,2.06,27.65,2.94,18,4.12,36.46,2.68,33.52,2.68,33.52l3.68,26.79s2-31.1,4.32-39.62c0,0,4.51-8.68,4.36-15.25s-.49-16-.49-16l2.8,15.39S606.44,308,603.7,287s.09-31.56-7.36-52.25-28.13-38.23-40.87-46.17c0,0,4.7-12-20.1-35.29s-47.54-52.73-47.54-52.73l11.47,19.65s-13.14-20.73-21.37-23.33-12.4-4.07-12.4-4.07,9.88,3.73,12.74,5.42,10.52,11.49,10.52,11.49a53.33,53.33,0,0,0-13.73-11.42c-8.4-4.8-31.73-9.16-31.73-9.16l18,6.47-18.24-4.91a53.7,53.7,0,0,0-23.18-6c-13.68-.44-29.6,7.16-29.6,7.16s16.41-5.64,28.91-4.75S439.06,92,438.82,92s-12.83-3.2-25.19-3.14-19.56,4-30.83,5.93-18.77,2.94-27.65,9.07S332,130.48,332,130.48s9.95-19.06,18.23-25.48,15.59-7.21,15.59-7.21-9.27-.19-21.18,9.36-20.63,31-25.48,39.07S285.5,188,278.05,207.83s-12.35,53.81-13.62,65.67-1.67,36.66-1.67,36.66l3.09-29.5s-.29,14.85-.29,21-.15,9.41-.15,9.76-2.06,10.38-.69,19,6,19,6,19-.29,14.93-.1,20.33,4.62,32.73,4.62,32.73Z" transform="translate(-80.16 -81.76)"/><g class="cls-44"><g class="cls-45"><path class="cls-46" d="M280.38,386.87s-4-47.25-2.81-81.75,2.74-41.18,2.74-41.18l-6,44.8s-3.53-23.33.29-40.48,5.69-21.76,5.69-21.76A174.84,174.84,0,0,0,270.8,276c-4,17.35-6.76,36.76-6.76,36.76S257,321.68,257,320.9s4-41.08,10.59-64.11,27.64-43.72,27.05-43.52S273.84,233,266.1,249l-7.75,16s5-30.79,24.31-55.88,45.88-48.91,45.88-48.91-33.82,20.68-48,37.83-14.81,17.75-14.22,17.16,16.77-41.66,51-63.82,71.36-20.88,71.36-20.88-10.2-4-33-.78-28.52,8.72-28.52,8.72S352,121,375.3,123.08s35.09,10.49,35.09,10.49S391.23,116.66,366.18,116s-27.72,5.61-28.23,5.3,4.12-17.16,26.86-15,48,22,48,22-13.13-14.61-31-24-26.71-.39-26.71-.39,15.54-12.45,30.44-6.37,39.31,34.41,39.31,34.41-7.06-20.59-26-31.67-34.77-2.33-34.77-2.33,28.2-12.08,48.2-2,30,34.8,30,34.8-5.79-17.55-16.77-31.27-28-9.65-28-9.65S414.8,85,429.11,95.15s22.94,38.32,22.94,38.32-7.84-29.21-18.43-39.3-26.24-6.1-26.17-5.52-22.47,4.63-24.08,4,25.55-18.24,46.13-7.46,30.29,45.88,30.29,45.88-1.71-16.8-8.72-29.31S431,83.68,431,83.68s23.52.88,33.81,12.45,15.79,40.28,15.79,40.28.29-22.44-5.49-31.27a75.79,75.79,0,0,0-11-13.52s13.24-5.57,22.31,11.72,18.07,43.27,18.07,43.27l-7.74-27.55L510,147.69,496.75,98.58,525,158.47,513.22,117.3s31.76,34,38.82,48.91,3.43,22.4,3.43,22.4.1-8-7.26-16.61-19.4-19.31-19.4-19.31S544.2,169,550.47,181.21s13.23,26.27,13.23,26.27l-5-22.64s38.62,22.45,42.94,51.46,3.2,60.73,3.2,60.73-3.1-40.34-13-59.55-21.07-28.43-21.07-28.43,9.51,8.14,18.13,35,13.24,57.34,12.65,54.4S587,255.61,587,255.61s9.8,33.63,11.18,47.94,2.35,34.4,2.35,34.4l-8-38.62s3.92,32.25,4.12,53.52a151.06,151.06,0,0,1-5.39,39.88s-287.32,78.93-310.87-5.86" transform="translate(-80.16 -81.76)"/></g></g><path class="cls-43" d="M352.94,483.72s8.87,2,12.21,2.74S396,489,401.22,490.28s39.8,4.81,39.8,4.81,29.41-4.41,36.91-4.12,15.24-1.42,29.75-.83,18.52-.49,18.52-.49-7.59,4.85-12.4,7.5a49.77,49.77,0,0,1-10.09,4s-9.41,13.92-24.12,13.73-57.64-2.06-74.2-1S374,496.66,374,496.66s-19.51-8.53-21.08-12.94" transform="translate(-80.16 -81.76)"/><path class="cls-47" d="M378.34,487.81l2.34,10.9s9.22,8.34,61.47,10.79,60.18-11.67,60.18-11.67l2.92-7.77c-13-.32-20.25,1.19-27.32.91-7.5-.29-36.91,4.12-36.91,4.12s-34.55-3.53-39.8-4.81c-3.08-.75-13.85-1.68-22.88-2.47" transform="translate(-80.16 -81.76)"/><path class="cls-48" d="M487,506.17c-9,2.5-24.44,5.34-44.41,4.4s-31.5-2.47-40.68-4.15c-13.38-1-18.19-3.44-18.19-3.44l-1.11,2c5.84,4.7,14.09,9.53,22.83,9,16.56-1.08,59.5.78,74.2,1,7.2.09,13.12-3.19,17.3-6.57l-.05-2.21-9.89.06" transform="translate(-80.16 -81.76)"/><g class="cls-49"><path class="cls-50" d="M487,506.17c-9,2.5-23.08,4.35-44.8,3.33-18.22-.86-31.2-2.43-40.39-4.11-5.1-.36-8.94-.8-11.74-1.2.58,1.84,1.42,4.32,1.42,4.32s3.24,3.73,17.79,3.78,42.11.68,58.23,1.27,19.31-2.5,19.31-2.5l.38-4.89Z" transform="translate(-80.16 -81.76)"/></g><path class="cls-48" d="M384.07,492l4.92.45,52.23,4.79,50.07-4.4,7.86-.69-1.9,10c4-2.31,5.08-4.24,5.08-4.24l2.92-7.77c-13-.32-20.25,1.19-27.32.91-7.5-.29-36.91,4.12-36.91,4.12s-34.55-3.53-39.8-4.81c-3.08-.75-13.85-1.68-22.88-2.47l2.34,10.9s1.23,1.11,5.32,2.64c-.69-3.52-1.93-9.4-1.93-9.4" transform="translate(-80.16 -81.76)"/><path class="cls-50" d="M389,492.4l-4.92-.45s1.24,5.88,1.93,9.4c1.46.54,3.27,1.14,5.53,1.76Z" transform="translate(-80.16 -81.76)"/><path class="cls-50" d="M491.29,492.79l-1.18,12.41a40.45,40.45,0,0,0,7.14-3.13l1.9-10Z" transform="translate(-80.16 -81.76)"/><path class="cls-43" d="M433.58,447.69s-3-4.9-14.26-9.26a33.53,33.53,0,0,0-21.61-.59,94,94,0,0,0,10.78,4.21c6.67,2.21,14.95,1.28,14.95,1.28s6.22.2,10.14,4.36m19.51,3s9.61-8.72,17-11.57a22.33,22.33,0,0,1,13.63-.85s-5.1,3.75-10.4,4.53-8.4,1.05-8.6,1.13S460.54,446.78,453.09,450.73Zm39.51-38.4s17.34,30.09-11.77,32.35C480.83,444.68,515.34,447.13,492.6,412.33Zm-100.77-4.44s-21.18,31.47,16.66,37.35C408.49,445.24,362.52,442.69,391.83,407.89Z" transform="translate(-80.16 -81.76)"/><path class="cls-51" d="M336.83,345.52s7.55-12,25.1-9.9,26.37,12,31.61,14.22l-13.14.29S347,361.5,336.83,345.52" transform="translate(-80.16 -81.76)"/><g class="cls-52"><path class="cls-47" d="M340.26,354.94c.05-.54,6-20.83,25.69-15.88s17.49,16.12,17.49,16.12-27.79,8.68-43.18-.24" transform="translate(-80.16 -81.76)"/><path class="cls-53" d="M362.87,328a15.38,15.38,0,1,1-15.38,15.38A15.38,15.38,0,0,1,362.87,328" transform="translate(-80.16 -81.76)"/><g class="cls-54"><path class="cls-55" d="M362.87,329.89a13.44,13.44,0,1,1-13.44,13.44,13.44,13.44,0,0,1,13.44-13.44" transform="translate(-80.16 -81.76)"/><g class="cls-56"><path class="cls-47" d="M373.85,349.09a12.09,12.09,0,0,0,.84-2v-.15a3.18,3.18,0,0,0-5.77-1.85,6.48,6.48,0,0,1-.54,1.3,6.31,6.31,0,0,1-11,0,6.48,6.48,0,0,1-.54-1.3,3.18,3.18,0,0,0-5.77,1.85v.15a12.09,12.09,0,0,0,.84,2,12.41,12.41,0,0,0,22,0" transform="translate(-80.16 -81.76)"/></g><g class="cls-57"><path class="cls-47" d="M356.24,350.08s1.72-2,3.55-1.74a11.4,11.4,0,0,1,3.88,1.76s-4.61,2.78-7.43,0" transform="translate(-80.16 -81.76)"/></g><path class="cls-53" d="M362.87,338.15a5.18,5.18,0,1,1-5.18,5.18,5.18,5.18,0,0,1,5.18-5.18" transform="translate(-80.16 -81.76)"/><g class="cls-58"><path class="cls-47" d="M357.83,338.25c2.47,0,4.48,1.59,4.48,3.55s-2,3.54-4.48,3.54-4.48-1.59-4.48-3.54,2-3.55,4.48-3.55" transform="translate(-80.16 -81.76)"/></g></g></g><path class="cls-43" d="M336.83,345.52s7.55-12,25.1-9.9,26.37,12,31.61,14.22l-13.14.29a86.41,86.41,0,0,1-13.84,3.2L382.41,352l18.14-.34-1.42-3.43-7.75-4.66s-16.32-14.36-37-12.84-28.58,21.57-28.58,21.57l10.59-3.48s8.38,4.05,15.44,4.87c-6.14-.79-11.76-3.1-15-8.21" transform="translate(-80.16 -81.76)"/><path class="cls-43" d="M320.46,351.7s6.67-21.91,32.94-23.43,33.33,4.61,40.68,11.23,7.65,6.66,7.65,6.66l-7.55-8.33s-7.55-12.4-33.58-12.5-36.36,11.23-40.14,26.37" transform="translate(-80.16 -81.76)"/><g class="cls-59"><path class="cls-60" d="M407.26,305.19s3.24,21.66,2.55,21.07-30.68-15.09-69.3-8.33-39,20.49-39,20.49l-3.13-22.74,4.6,15.68-3.33-19.21s12.74-14,42.64-16.76,62.59,8.67,62.59,8.67.12,15.45.3,15.05,2.1-13.92,2.1-13.92" transform="translate(-80.16 -81.76)"/></g><g class="cls-61"><path class="cls-60" d="M471,313.53s-3.13,21-2.47,20.41,29.7-14.62,67.09-8.07,37.77,19.83,37.77,19.83l3-22L572,338.87l3.23-18.6s-12.34-13.57-41.28-16.22-60.59,8.39-60.59,8.39-.11,15-.28,14.57-2-13.48-2-13.48" transform="translate(-80.16 -81.76)"/></g><path class="cls-43" d="M298.3,319.08c-9.32,10.88-6,32.55-4.51,43.72s7.94,30.78,23.43,35.39,61.07,8.53,77-1.86,26.57-35.68,26.76-50.88-3.33-21.86-17.84-27.64c-17-6.78-90.8-15.18-104.88,1.27m229.57-2.94s-41,.2-53.32,8.53-9,37.25-1.38,53.13,14.51,28.43,53.92,29.11,51.07-6.76,57.15-26.76,7-33.13,3.92-44.89S563.16,315.85,527.87,316.14Zm-256.77,7.8,1.27,17.84,5,3.53,3.92-8.43s5,27.35,9.12,43.23,15.19,20.48,28.91,24.8,64.41,10.39,83.32-5.3,22.45-40.29,25.1-46,4.51-13.53,11-14.12,15,.74,16.42,3.19,7.69,47.44,29,60.48,56.17,12.16,77.93,7.45,26.18-20.1,29.51-29.41,4.9-25.48,8.23-31.07a65.58,65.58,0,0,1,5.79-8.43s1.17-19.8.68-20.59a4.56,4.56,0,0,0-1.27-1.27,328.14,328.14,0,0,0-82.25-11.37c-45.09-.3-61.85,14.21-61.85,14.21s-24.21-2.84-35.39-.29c0,0-13.62-16.86-65.58-19.71s-84.39,5.79-84.39,5.79Z" transform="translate(-80.16 -81.76)"/><g class="cls-62"><path class="cls-63" d="M272.37,341.78l4.26-12.5-1.07-20.78-20.88,5.58s-11.18,29.8,17.69,27.7" transform="translate(-80.16 -81.76)"/><g class="cls-64"><path class="cls-63" d="M276,305.21l3,22.74,6.87,9.41s.58,9.46,1.32,11.67a30.27,30.27,0,0,0,2.35,4.9s-9.85-38.62,22-44.6,63.34-1.39,87.63,4.9,24.7,14.21,24.61,23.62a84.61,84.61,0,0,1-2.06,17.35l4.65-1.91s-.24-15.63,13.73-16.86,18.08,3.63,18.57,6.91.84,7.9,1.23,8,4.26,2,4.26,2-5.63-34.26,24.95-36c12-.69,21.74-3.11,33.92-3.4,19-.46,39.55,1.86,51.07,5.56,18.92,6.07,19.6,34.3,19.6,34.3l6.77-7.94,2.25-34.4S402.55,250.91,276,305.21" transform="translate(-80.16 -81.76)"/></g></g><path class="cls-51" d="M487.78,352.83l7-4.56s14.76-11,27.35-8.63,20.1,12.4,20.1,12.4-10.89,8.24-24.31,6.92a132.28,132.28,0,0,1-24.14-4.83c-.25,0-6-1.3-6-1.3" transform="translate(-80.16 -81.76)"/><g class="cls-65"><path class="cls-47" d="M494.06,357.71s11.66-18.83,27.05-15.4,14.61,17.94,14.61,17.94-14.66,12.65-41.66-2.54" transform="translate(-80.16 -81.76)"/><path class="cls-53" d="M515.68,333.09a15.38,15.38,0,1,1-15.37,15.38,15.38,15.38,0,0,1,15.37-15.38" transform="translate(-80.16 -81.76)"/><g class="cls-66"><path class="cls-55" d="M515.68,335a13.44,13.44,0,1,1-13.43,13.44A13.43,13.43,0,0,1,515.68,335" transform="translate(-80.16 -81.76)"/><g class="cls-67"><path class="cls-47" d="M526.67,354.23a13,13,0,0,0,.84-2v-.15a3.18,3.18,0,0,0-5.77-1.85,7.11,7.11,0,0,1-.54,1.3,6.31,6.31,0,0,1-11,0,5.94,5.94,0,0,1-.54-1.3,3.18,3.18,0,0,0-5.78,1.85c0,.05,0,.1,0,.15a13,13,0,0,0,.83,2,12.41,12.41,0,0,0,22,0" transform="translate(-80.16 -81.76)"/></g><g class="cls-68"><path class="cls-47" d="M509.06,355.22s1.72-2,3.54-1.74a11.4,11.4,0,0,1,3.88,1.76s-4.6,2.78-7.42,0" transform="translate(-80.16 -81.76)"/></g><path class="cls-53" d="M515.68,343.29a5.18,5.18,0,1,1-5.17,5.18,5.18,5.18,0,0,1,5.17-5.18" transform="translate(-80.16 -81.76)"/><g class="cls-69"><path class="cls-47" d="M510.65,343.39c2.47,0,4.47,1.59,4.47,3.55s-2,3.54-4.47,3.54-4.48-1.59-4.48-3.54,2-3.55,4.48-3.55" transform="translate(-80.16 -81.76)"/></g></g></g><path class="cls-43" d="M494.79,348.27s14.76-11,27.35-8.63,20.1,12.4,20.1,12.4A39.93,39.93,0,0,1,530,357.82l13.35-3.1,12.06,2.89s-.93-1.23-4.85-6.47-12.94-14.46-30.88-16.37-36.1,17.42-36.1,17.42L482,354.64l12.28,1.08,12.41,1.59c-7.63-1.48-12.75-3.18-12.92-3.18s-6-1.3-6-1.3Z" transform="translate(-80.16 -81.76)"/><path class="cls-43" d="M479.45,349.77s18.77-22.11,44.9-17,31,17.64,33.23,22.45c0,0-6.82-24.17-37.2-26.23s-40.93,20.74-40.93,20.74" transform="translate(-80.16 -81.76)"/></svg>