<svg height="584pt" preserveAspectRatio="xMidYMid meet" viewBox="0 0 2084 584" width="2084pt" xmlns="http://www.w3.org/2000/svg"><g transform="matrix(.1 0 0 -.1 0 584)"><path d="m0 2920v-2920h3555 3555v2920 2920h-3555-3555zm5082 1610h139l199-405c110-223 201-405 204-405 2 0 98 178 213 395l208 395h251c258 0 312-4 320-25 3-6-153-361-346-788l-350-778-12-697c-6-383-15-708-20-721l-9-24-287 7c-158 4-291 12-296 17-6 5-5 286 3 718l12 710-330 780c-182 429-331 789-331 800 0 10 6 22 13 25 6 3 72 4 146 1s197-5 273-5zm-1182-32c17-38 800-2958 800-2983 0-15-7-25-22-29-36-9-531-7-547 3-7 5-55 157-105 337l-92 329-341 3-341 2-11-32c-5-18-44-161-86-318s-83-295-91-308c-14-22-16-22-280-22s-304 5-304 35c0 17 798 2983 806 2996 3 5 138 9 305 9h299zm-2643-460c113-219 208-398 212-398 3 0 96 179 206 398l200 397 276 3c236 2 278 0 289-13 10-12-45-148-324-796l-336-780v-708c0-550-3-711-13-724-11-16-38-17-302-15l-290 3-5 725-5 725-342 768c-189 422-343 776-343 786 0 11 6 22 13 24 6 3 135 5 285 4l273-2z"/><path d="m15742 4478c-16-16-18-2999-2-3029 10-19 30-19 818-19 615 0 811 3 820 12s12 86 12 283-3 274-12 283-138 12-520 12h-508v335 335l403 2 402 3v290 290l-402 3-403 2v310 310h508c382 0 511 3 520 12s12 86 12 283-3 274-12 283c-17 17-1619 17-1636 0z"/><path d="m11386 4418c-7-18-192-700-411-1515-334-1241-396-1484-385-1497 11-14 52-16 300-16 218 0 290 3 298 13 6 6 50 158 99 337l88 325 331 3 331 2 61-217c34-120 76-272 95-338l33-120 288-3c300-2 316 0 316 39 0 31-799 2991-811 3005-9 11-72 14-316 14h-304z"/><path d="m13273 4443c-10-4-13-318-13-1523 0-1375 1-1518 16-1524 20-8 558-8 578 0 14 6 16 63 16 541v535l112 154c61 85 114 154 117 154s114-312 247-693l241-692 334-2c184-2 340 1 347 5 7 5 14 17 14 28 1 10-170 452-380 981-210 528-382 964-382 967s159 226 354 494c194 269 359 498 365 510 15 28 14 38-5 56-13 14-56 16-320 16-279 0-305-1-321-18-10-10-175-231-368-491l-350-473-3 477c-1 333-6 482-13 492-9 10-69 13-293 12-154 0-287-3-293-6z"/><path d="m17892 4438c-17-17-17-3019 0-3036 9-9 89-12 300-12 274 0 288 1 298 19 6 13 10 159 10 406v386l112-3 113-3 171-375c95-206 179-387 188-403l15-27h304c313 0 327 2 327 41 0 9-87 208-194 442l-193 425 73 51c161 112 255 292 284 546 13 115 13 730 0 855-31 290-160 495-380 603-184 91-244 97-895 97-392 0-524-3-533-12z"/><path d="m20220 4410c0-40 0-40 40-40h39l3-147 3-148h40 40l3 148 3 147h39c40 0 40 0 40 40v40h-125-125z"/><path d="m20520 4266v-186h40 39l3 73 3 72 19-72c18-72 19-73 51-73 31 0 32 1 58 83l25 82 1-82 1-83h40 40l-2 183-3 182-45 3-45 3-35-107-35-106-31 103-30 104-47 3-47 3z"/><path d="m7562 2838 3-1523h290 290l5 865 5 865 229-845c126-465 232-855 237-867 8-23 10-23 218-23 155 0 211 3 218 13 6 6 120 385 254 840l244 829 5-831c4-725 7-833 20-841 8-6 133-10 287-10 259 0 273 1 283 19 11 21 15 2986 4 3015-5 14-46 16-353 16h-346l-305-930c-167-512-307-930-310-930s-119 384-259 853c-140 468-265 887-278 930l-24 77h-359-360z"/></g></svg>